<?xml version="1.0" encoding="UTF-8"?>
<svg width="272px" height="324px" viewBox="0 0 272 324" version="1.1" xmlns="http://www.w3.org/2000/svg" xmlns:xlink="http://www.w3.org/1999/xlink">
    <title>Group 7</title>
    <g id="Page-1" stroke="none" stroke-width="1" fill="none" fill-rule="evenodd">
        <g id="Group-7" transform="translate(0.580000, 0.260000)" fill-rule="nonzero">
            <path d="M81.4020927,12.311629 L81.408371,12.3472057 C81.4432501,12.5869996 81.5871264,13.9712644 81.84,16.5 C72.7466667,5.5 61.38,0 47.74,0 C33.0733333,0 21.45,5.24333333 12.87,15.73 C4.29,26.2166667 -2.27373675e-13,40.4066667 -2.27373675e-13,58.3 C-2.27373675e-13,76.1933333 4.47333333,90.53 13.42,101.31 C22.3666667,112.09 34.1733333,117.48 48.84,117.48 C60.8666667,117.48 70.9866667,113.3 79.2,104.94 L79.2,104.94 L79.2,114.84 C79.2,115.000247 79.1999749,115.159161 79.1999246,115.316742 L79.199321,116.246235 C79.1916255,124.010967 79.1185185,128.308889 78.98,129.14 C78.3933333,136.473333 76.4866667,140.14 73.26,140.14 C72.82,140.14 71.8666667,139.993333 70.4,139.7 C67.4666667,139.113333 65.12,138.82 63.36,138.82 C58.3733333,138.82 55.88,141.166667 55.88,145.86 C55.88,150.7 58.5933333,153.12 64.02,153.12 C66.5133333,153.12 70.3633333,152.9 75.57,152.46 C80.7766667,152.02 84.7,151.8 87.34,151.8 L87.6387654,151.800905 C90.275144,151.816598 94.1355556,152.036296 99.22,152.46 C104.5,152.9 108.46,153.12 111.1,153.12 C116.526667,153.12 119.24,150.7 119.24,145.86 C119.24,141.02 116.893333,138.6 112.2,138.6 C111.32,138.6 110.146667,138.746667 108.68,139.04 C105.013333,139.773333 103.253333,140.14 103.4,140.14 C100.466667,140.14 98.56,138.783333 97.68,136.07 C96.8,133.356667 96.2866667,127.526667 96.14,118.58 L96.14,118.58 L95.48,87.12 L95.48,45.1 L96.36,18.92 L96.36,18.92 L96.36,14.3 C96.36,6.67333333 93.8666667,2.86 88.88,2.86 C83.8933333,2.86 81.4,6.01333333 81.4,12.32 C81.4006976,12.3121522 81.4013952,12.3093619 81.4020927,12.311629 Z M49.5,102.96 C39.5266667,102.96 31.7533333,99 26.18,91.08 C20.6066667,83.16 17.82,72.0866667 17.82,57.86 C17.82,44.22 20.5333333,33.5866667 25.96,25.96 C31.3866667,18.3333333 38.94,14.52 48.62,14.52 C54.78,14.52 60.3533333,16.3533333 65.34,20.02 C71.2066667,24.2733333 75.0933333,29.9933333 77,37.18 C78.0266667,41.4333333 78.6866667,48.4733333 78.98,58.3 L78.98,58.3 L78.98,64.46 C78.98,70.9133333 78.8333333,75.3866667 78.54,77.88 C77.66,85.0666667 74.47,91.0433333 68.97,95.81 C63.47,100.576667 56.98,102.96 49.5,102.96 Z" id="q" fill="#00962C"></path>
            <path d="M196.22,125.48 C211.473333,125.48 222.986667,120.126667 230.76,109.42 L230.76,109.42 L230.76,116.24 C230.76,120.493333 232.813333,122.62 236.92,122.62 C238.24,122.62 239.78,122.4 241.54,121.96 C244.18,121.666667 245.72,121.52 246.16,121.52 C247.04,121.52 249.313333,121.74 252.98,122.18 C255.473333,122.473333 257.38,122.62 258.7,122.62 C264.86,122.62 267.94,120.126667 267.94,115.14 C267.94,110.3 265.446667,107.88 260.46,107.88 C259.433333,107.88 257.966667,108.063333 256.06,108.43 C254.153333,108.796667 252.686667,108.98 251.66,108.98 C248.286667,108.98 246.233333,105.093333 245.5,97.32 C245.361333,96.3493333 245.288218,91.8388848 245.280655,83.7886545 L245.280595,47.7270741 C245.297253,37.246079 245.663721,29.2837209 246.38,23.84 C246.673333,22.6666667 246.82,21.0533333 246.82,19 C246.82,14.3066667 244.62,11.96 240.22,11.96 C239.046667,11.96 237.286667,12.07 234.94,12.29 C232.593333,12.51 230.833333,12.62 229.66,12.62 C228.34,12.62 226.323333,12.4733333 223.61,12.18 C220.896667,11.8866667 218.88,11.74 217.56,11.74 C211.84,11.74 208.98,14.3066667 208.98,19.44 C208.98,23.9866667 211.546667,26.26 216.68,26.26 L216.68,26.26 L219.32,26.26 C220.346667,25.9666667 221.666667,25.82 223.28,25.82 C226.36,25.82 228.266667,29.34 229,36.38 L229,36.38 L229,62.78 C229,78.7666667 227.826667,89.62 225.48,95.34 C223.573333,100.033333 220.2,103.81 215.36,106.67 C210.52,109.53 204.946667,110.96 198.64,110.96 C185.88,110.96 177.813333,106.34 174.44,97.1 C172.386667,91.5266667 171.36,82.36 171.36,69.6 L171.36,69.6 L171.36,55.3 L172.02,39.02 L172.24,24.72 L172.24,20.1 C172.24,14.5266667 169.966667,11.74 165.42,11.74 C165.126667,11.74 163.88,11.8866667 161.68,12.18 C158.453333,12.62 156.18,12.84 154.86,12.84 C153.393333,12.84 151.23,12.6933333 148.37,12.4 C145.51,12.1066667 143.346667,11.96 141.88,11.96 C135.573333,11.96 132.42,14.3066667 132.42,19 C132.42,23.84 134.986667,26.26 140.12,26.26 C141.146667,26.26 142.613333,26.0766667 144.52,25.71 C146.426667,25.3433333 147.82,25.16 148.7,25.16 C152.953333,25.16 155.08,35.2066667 155.08,55.3 L155.08,55.3 L155.080825,75.3269638 C155.089254,84.164226 155.162313,90.0285714 155.3,92.92 C155.593333,99.2266667 157.206667,104.726667 160.14,109.42 C166.886667,120.126667 178.913333,125.48 196.22,125.48 Z" id="u" fill="#F81317"></path>
            <path d="M40.18,322.48 C56.1666667,322.48 67.9,316.98 75.38,305.98 C78.1666667,316.393333 85.5733333,321.6 97.6,321.6 C112.266667,321.6 119.746667,314.56 120.04,300.48 L120.04,300.48 L120.26,287.94 L120.26,286.84 C120.26,279.8 117.84,276.28 113,276.28 C108.453333,276.28 106.18,278.626667 106.18,283.32 L106.18,283.32 L106.18,294.1 C106.18,303.486667 103.613333,308.18 98.48,308.18 C94.3733333,308.18 91.88,305.613333 91,300.48 C90.72,299.22 90.5736364,295.354091 90.5609091,288.882273 L90.56,243.5 C90.56,217.833333 77.2133333,205 50.52,205 C38.9333333,205 29.07,207.933333 20.93,213.8 C12.79,219.666667 8.72,226.706667 8.72,234.92 C8.72,238.733333 10.0033333,241.96 12.57,244.6 C15.1366667,247.24 18.3266667,248.56 22.14,248.56 C25.3666667,248.56 28.0433333,247.606667 30.17,245.7 C32.2966667,243.793333 33.36,241.373333 33.36,238.44 C33.36,234.92 32.3333333,232.426667 30.28,230.96 C28.96,230.08 28.3,229.346667 28.3,228.76 C28.3,227.146667 29.4,225.606667 31.6,224.14 C37.32,220.473333 43.48,218.64 50.08,218.64 C57.56,218.64 63.39,220.363333 67.57,223.81 C71.75,227.256667 73.84,231.986667 73.84,238 C73.84,244.306667 71.97,248.633333 68.23,250.98 C64.49,253.326667 56.46,255.16 44.14,256.48 C35.4866667,257.506667 29.73,258.35 26.87,259.01 C24.01,259.67 20.6,261.1 16.64,263.3 C6.22666667,269.02 1.02,277.966667 1.02,290.14 C1.02,299.966667 4.57666667,307.813333 11.69,313.68 C18.8033333,319.546667 28.3,322.48 40.18,322.48 Z M41.28,307.96 C34.3866667,307.96 28.9233333,306.346667 24.89,303.12 C20.8566667,299.893333 18.84,295.493333 18.84,289.92 C18.84,279.213333 27.2,273.053333 43.92,271.44 C53.16,270.56 59.5766667,269.533333 63.17,268.36 C66.7633333,267.186667 70.1733333,265.133333 73.4,262.2 L73.4,262.2 L73.18,277.82 C73.0333333,287.206667 70.1366667,294.576667 64.49,299.93 C58.8433333,305.283333 51.1066667,307.96 41.28,307.96 Z" id="a" fill="#FFB200"></path>
            <path d="M197.72,322.48 C212.533333,322.48 223.826667,317.273333 231.6,306.86 L231.6,306.86 L231.38,310.6 L231.38,311.7 C231.38,316.98 233.36,319.62 237.32,319.62 C238.64,319.62 240.18,319.4 241.94,318.96 C244.873333,318.666667 246.56,318.52 247,318.52 C248.466667,318.52 250.703333,318.703333 253.71,319.07 C256.716667,319.436667 258.953333,319.62 260.42,319.62 C267.02,319.62 270.32,317.126667 270.32,312.14 C270.32,307.3 267.606667,304.88 262.18,304.88 C261.3,304.88 259.686667,305.026667 257.34,305.32 C256.313333,305.613333 254.846667,305.76 252.94,305.76 C250.153333,305.76 248.393333,304.586667 247.66,302.24 C246.926667,299.893333 246.486667,293.88 246.34,284.2 L246.34,284.2 L245.9,247.46 L245.900458,225.525473 C245.909615,221.725265 246.056129,216.276774 246.34,209.18 C246.78,198.766667 247,193.12 247,192.24 C247.129067,185.786667 247.258133,182.002432 247.3872,180.887296 L247.4048,180.751776 C247.416533,180.672459 247.428267,180.6152 247.44,180.58 L247.44,180.58 L247.44,178.16 C247.44,172.293333 245.386667,169.36 241.28,169.36 C239.96,169.36 238.053333,169.506667 235.56,169.8 C233.066667,170.093333 231.16,170.24 229.84,170.24 C229.776577,170.24 229.288045,170.19886 228.374405,170.116581 L228.011863,170.083798 C226.800711,169.973879 224.99009,169.805946 222.58,169.58 C219.5,169.286667 217.373333,169.14 216.2,169.14 C208.866667,169.14 205.2,171.56 205.2,176.4 C205.2,181.093333 207.913333,183.44 213.34,183.44 C214.513333,183.44 216.163333,183.22 218.29,182.78 C220.416667,182.34 222.066667,182.12 223.24,182.12 C226.613333,182.12 228.666667,184.393333 229.4,188.94 C229.693333,190.26 229.84,193.853333 229.84,199.72 L229.84,199.72 L229.84,221.94 C222.653333,210.646667 211.8,205 197.28,205 C182.32,205 170.366667,210.316667 161.42,220.95 C152.473333,231.583333 148,245.773333 148,263.52 C148,281.12 152.546667,295.346667 161.64,306.2 C170.733333,317.053333 182.76,322.48 197.72,322.48 Z M199.48,307.96 C189.066667,307.96 180.853333,303.963333 174.84,295.97 C168.826667,287.976667 165.82,277.013333 165.82,263.08 C165.82,249.586667 168.716667,238.953333 174.51,231.18 C180.303333,223.406667 188.333333,219.52 198.6,219.52 C206.226667,219.52 212.973333,221.94 218.84,226.78 C223.826667,230.886667 226.98,236.606667 228.3,243.94 C229.033333,247.46 229.4,254.133333 229.4,263.96 C229.4,271.586667 229.106667,277.82 228.52,282.66 C227.64,290.286667 224.56,296.41 219.28,301.03 C214,305.65 207.4,307.96 199.48,307.96 Z" id="d" fill="#0078C6"></path>
        </g>
    </g>
</svg>